@startuml AlumniExternalServices

title Servicios externos

'!theme amiga
skinparam backgroundColor white
skinparam defaultFontName Arial
hide circle
hide empty members

abstract "SERVICIO EXTERNO" 
{ 
}

class UNIVERSIDAD 
{
    Bases de Datos
}

class "RED SOCIAL"
{
    Perfil
}

class INSTALACIONES 
{
    Biblioteca
    Sala de Ordenadores
    Instalaciones Deportivas
}

class NEWSLETTER 
{
    Noticias
    Eventos
}

class "OFERTAS DE EMPLEO" 
{
    Nombre de la Empresa
    Puesto de Trabajo
    Descripción
    Salario
    Ubicación
}

class COMUNICACIÓN 
{
    Email
    Chat
}

"SERVICIO EXTERNO" <|-- UNIVERSIDAD
"SERVICIO EXTERNO" <|-- "RED SOCIAL"
"SERVICIO EXTERNO" <|-- INSTALACIONES
"SERVICIO EXTERNO" <|-- NEWSLETTER
"SERVICIO EXTERNO" <|-- "OFERTAS DE EMPLEO"
"SERVICIO EXTERNO" <|-- COMUNICACIÓN

@enduml