@startuml
title Consultar Estadísticas

skinparam {
    NoteBackgroundColor #whiteSmoke
    ArrowColor #green
    NoteBorderColor #green
    linetype polyline
}

hide empty description

state startState as "INICIO"

startState --> Consultar_Estadísticas
note on link
    <b>Administrador Solicita</b>
    * Consultar Estadísticas
end note

state Consultar_Estadísticas{
state 2 as " "
state 3 as " "
state 4 <<choice>>

[*] -down-> 2

2 -down-> 3
note on link
<b>Sistema Solicita</b>
* Servicio a consultar
* Fecha de inicio
* Fecha de fin
<b>Sistema Permite</b>
* Consultar estadísticas
end note

3 -down-> 4
note on link
<b>Administrador introduce</b>
* Servicio a consultar
* Fecha de inicio
* Fecha de fin
end note

4 -down-> [*]
note on link
<b>Sistema Muestra</b>
* Estadísticas del servicio
end note

4 -[#red]-> 2
note on link
<b>Sistema Muestra</b>
* Mensaje de error al generar las estadísticas
end note

}
@enduml
