@startuml Diagrama_de_Clases

title Diagrama de Clases

'!theme amiga
skinparam backgroundColor white
skinparam defaultFontName Arial

hide empty members

class PLATAFORMA 
{
   Alumni
}

abstract "SERVICIO EXTERNO"{
    Url
}

abstract USUARIO 
{
    ID
    Nombre 
    Apellido
    Fecha de Nacimiento
    Email
    Foto de Perfil
}

class EGRESADO 
{
    Dirección
    Ocupación
    Carnet de Estudiante
    Numero
    Dni
}

class ADMINISTRADOR 
{
}

class REQUISITO 
{
    Titulación de UNEAT
}

class ESTADÍSTICA 
{
}

class SUSCRIPCIÓN 
{
    Paquetes Suscritos
    Servicios Suscritos
    Precio Total
}

class PAQUETE
{
    Nombre
    Descripción
    Servicios incluidos
    Precio
}

abstract SERVICIO 
{
    Nombre 
    Descripción
    Precio
}

PLATAFORMA -- USUARIO : tiene
PLATAFORMA -left ESTADÍSTICA : genera
PLATAFORMA -right- "SERVICIO EXTERNO" : se comunica
SERVICIO .up..|> "SERVICIO EXTERNO"
SUSCRIPCIÓN -up- PLATAFORMA : tiene
SUSCRIPCIÓN -- SERVICIO : incluye
EGRESADO -- REQUISITO : cumple
SUSCRIPCIÓN -- PAQUETE : incluye
PAQUETE - SERVICIO : incluye
USUARIO <|-- EGRESADO
USUARIO <|-- ADMINISTRADOR
ADMINISTRADOR -up- PLATAFORMA : administra

@enduml
