@startuml
title Eliminar Paquete

skinparam {
    NoteBackgroundColor #whiteSmoke
    ArrowColor #green
    NoteBorderColor #green
    linetype polyline
}

hide empty description

state startState as "INITIAL"

startState --> EliminarPaquete
note on link
    <b>Administrador Solicita</b>
    * Elminar Paquete de Servicios
end note

state EliminarPaquete{
state 2 as " "
state 3 as " "
state 4 <<choice>>

[*] -down-> 2

2 -down-> 3
note on link
<b>Sistema Permite</b>
* Eliminar Paquete
end note

3 -down-> 4
note on link
<b>Amdinistrador Introduce</b>
* Nombre del Paquete
end note

4 -down-> [*]
note on link
<b>Sistema Muestra</b>
* Mensaje de Confirmacion
end note

4 -[#red]-> 2
note on link
<b>Sistema Muestra</b>
* Mensaje de error al eliminar Paquete
end note

}
@enduml