@startuml
title Consultar Estadisticas

skinparam {
    NoteBackgroundColor #whiteSmoke
    ArrowColor #green
    NoteBorderColor #green
    linetype polyline
}

hide empty description

state startState as "INITIAL"

startState --> ConsultarEstadisticas
note on link
    <b>Administrador Solicita</b>
    * Consultar Estadisticas
end note

state ConsultarEstadisticas{
state 2 as " "
state 4 <<choice>>

[*] -down-> 2

2 -down-> 4
note on link
<b>Sistema Permite</b>
* Consultar Estadisticas
end note

4 -down-> [*]
note on link
<b>Sistema Muestra</b>
* Estadisticas Solicitadas
end note

4 -[#red]-> 2
note on link
<b>Sistema Muestra</b>
* Mensaje de error al Consultar Estadisticas
end note

}
@enduml
