@startuml
title Editar Paquete

skinparam {
    NoteBackgroundColor #whiteSmoke
    ArrowColor #green
    NoteBorderColor #green
    linetype polyline
}

hide empty description

state startState as "GESTIÓN_PAQUETES"
state endState as "GESTIÓN_PAQUETES"

startState --> EditarPaquete
note on link
    <b>Administrador Solicita</b>
    * Editar Paquete de Servicios
end note

EditarPaquete --> endState

state EditarPaquete{
state 2 as " "
state 3 as " "
state 4 <<choice>>

[*] -down-> 2

2 -down-> 3
note on link
<b>Sistema Solicita</b>
* Nombre
* Servicios Incluidos
* Precio
* Descripción
<b>Sistema Permite</b>
* Actualizar datos de Paquete de Servicios
end note

3 -down-> 4
note on link
<b>Administrador Introduce</b>
* Nombre
* Servicios Incluidos
* Precio
* Descripción
end note

4 -down-> [*]
note on link
<b>Sistema Muestra</b>
* Cambios Realizados
end note

4 -[#red]-> 2
note on link
<b>Sistema Muestra</b>
* Mensaje de error en los datos introducidos
end note

}
@enduml