@startuml Contexto
title Contexto Administrador

skinparam {
    NoteBackgroundColor #whiteSmoke
    NoteBorderColor #green
    linetype polyline
}

hide empty description

[*] --> INICIAR_SESIÓN
INICIAR_SESIÓN --> INICIO : Iniciar Sesión

INICIO -> CONFIGURACIÓN
INICIO <- CONFIGURACIÓN

CONFIGURACIÓN -> LISTAR_DATOS_USUARIO
CONFIGURACIÓN <- LISTAR_DATOS_USUARIO
CONFIGURACIÓN -> EDITAR_DATOS_USUARIO
CONFIGURACIÓN <- EDITAR_DATOS_USUARIO
CONFIGURACIÓN -> REALIZAR_PETICIÓN
CONFIGURACIÓN <- REALIZAR_PETICIÓN

INICIO --> [*] : Cerrar Sesión
CONFIGURACIÓN --> [*] : Cerrar Sesión

@enduml