@startuml
title Editar Egresado

skinparam {
    NoteBackgroundColor #whiteSmoke
    ArrowColor #green
    NoteBorderColor #green
    linetype polyline
}

hide empty description

state startState as "GESTIÓN_EGRESADOS"
state endState as "GESTIÓN_EGRESADOS"

startState --> EditarEgresado
note on link
    <b>Administrador Solicita</b>
    * Editar Egresado
end note

EditarEgresado --> endState

state EditarEgresado {
state 2 as " "
state 3 as " "
state 4 <<choice>>

[*] -down-> 2

2 -down-> 3
note on link
<b>Sistema Solicita</b>
* Nombre
* Apellido
* Fecha de nacimiento
* Email
* Teléfono
* Contraseña
* Dirección
* Ocupación
<b>Sistema Permite</b>
* Actualizar datos del Egresado
end note

3 -down-> 4
note on link
<b>Administrador introduce</b>
* Nombre
* Apellido
* Fecha de nacimiento
* Email
* Teléfono
* Contraseña
* Dirección
* Ocupación
end note

4 -down-> [*]
note on link
<b>Sistema Muestra</b>
* Cambios realizados
end note

4 -[#red]-> 2
note on link
<b>Sistema Muestra</b>
* Mensaje de error en los datos introducidos
end note

}
@enduml
