@startuml

title Crear Administrador

skinparam {
    NoteBackgroundColor #whiteSmoke
    ArrowColor #green
    NoteBorderColor #green
    linetype polyline
}

hide empty description

state startState as "GESTIÓN_ADMINISTRADORES"
state endState as "GESTIÓN_ADMINISTRADORES"

startState --> CrearAdministrador
note on link
    <b>Administrador Solicita</b>
    * Crear Usuario Administrador
end note

CrearAdministrador --> endState

state CrearAdministrador {
state 2 as " "
state 3 as " "
state 4 <<choice>>

[*] -down-> 2

2 -down-> 3
note on link
<b>Sistema Solicita</b>
* Nombre
* Apellido
* Fecha de nacimiento
* Email
* Contraseña
<b>Sistema Permite</b>
* Crear Administrador
end note

3 -down-> 4
note on link
<b>Administrador Introduce</b>
* Nombre
* Apellido
* Fecha de nacimiento
* Email
* Contraseña
end note

4 -down-> [*]
note on link
<b>Sistema Muestra</b>
* Administrador Creado
end note

4 -[#red]-> 2
note on link
<b>Sistema Muestra</b>
* Mensaje de error en los datos introducidos
end note

}

@enduml